<?xml version="1.0" encoding="UTF-8" standalone="no"?>
<!DOCTYPE svg PUBLIC "-//W3C//DTD SVG 1.1//EN" "http://www.w3.org/Graphics/SVG/1.1/DTD/svg11.dtd">
<svg width="120.00" height="120.00" viewBox="0.00 0.00 2000.00 2000.00" xmlns="http://www.w3.org/2000/svg" xmlns:xlink="http://www.w3.org/1999/xlink">
<g stroke-linecap="round" id="Layer_2">
<path d="M692.04,1842.67 C677.59,1837.07 648.75,1825.09 634.37,1818.72 C620.04,1812.10 591.87,1798.29 578.05,1791.10 C564.41,1783.74 537.67,1767.90 524.40,1759.61 C511.19,1751.07 485.13,1733.35 472.40,1724.25 C459.88,1715.00 435.54,1695.80 423.62,1685.77 C411.81,1675.51 388.52,1654.30 377.14,1643.45 C365.99,1632.47 344.36,1610.16 334.02,1598.62 C323.83,1586.85 303.84,1562.68 294.07,1550.29 C284.53,1537.79 266.18,1512.55 257.37,1499.80 C248.97,1486.78 232.67,1460.17 224.78,1446.58 C217.07,1432.81 202.39,1405.11 195.43,1391.19 C188.72,1377.22 176.39,1348.72 170.53,1334.23 C164.86,1319.57 154.19,1289.94 149.24,1275.12 C144.54,1260.28 136.13,1230.47 132.39,1215.37 C128.86,1200.14 122.49,1169.31 119.66,1153.86 C117.09,1138.44 112.71,1107.71 111.14,1092.31 C109.80,1076.81 107.85,1045.53 107.23,1029.78 C106.86,1014.07 106.86,982.89 107.23,967.41 C108.08,951.96 110.55,920.88 112.16,905.25 C114.02,889.60 118.44,858.58 120.99,843.24 C123.78,828.01 130.57,797.73 134.35,782.57 C138.39,767.40 147.19,737.18 151.90,722.28 C156.83,707.54 167.57,678.50 173.42,664.09 C179.53,649.71 192.51,621.04 199.31,606.89 C206.30,592.92 220.84,565.50 228.63,552.13 C236.67,538.81 253.50,512.38 262.27,499.28 C271.21,486.37 289.56,461.16 298.96,448.86 C308.75,436.87 329.04,413.19 339.54,401.51 C350.26,389.94 372.09,367.46 383.18,356.56 C394.40,345.89 417.72,325.40 429.70,315.36 C441.90,305.46 466.80,286.20 479.38,276.92 C492.05,267.89 517.83,250.72 531.05,242.51 C544.46,234.47 571.83,218.92 585.67,211.47 C599.55,204.28 627.46,190.65 641.64,184.41 C655.98,178.37 685.15,166.88 699.97,161.44 C714.80,156.25 744.49,146.64 759.34,142.22 C774.33,138.27 804.68,131.04 820.06,127.76 C835.54,124.70 866.44,119.34 881.84,117.04 C897.21,115.00 928.14,112.12 943.75,111.05 C959.45,110.21 990.94,109.25 1006.59,109.14 C1022.16,109.28 1053.14,110.53 1068.67,111.65 C1084.26,113.03 1115.57,116.52 1131.16,118.63 C1146.63,120.97 1177.24,126.33 1192.39,129.61 C1207.56,133.15 1237.94,140.99 1253.13,145.29 C1268.20,149.80 1297.89,159.46 1312.51,164.61 C1326.97,170.22 1355.80,182.19 1370.18,188.57 C1384.51,195.18 1412.69,209.00 1426.51,216.18 C1440.15,223.55 1466.88,239.38 1480.15,247.67 C1493.36,256.21 1519.42,273.93 1532.15,283.03 C1544.68,292.28 1569.02,311.48 1580.93,321.51 C1592.74,331.77 1616.04,352.98 1627.42,363.83 C1638.57,374.81 1660.19,397.12 1670.53,408.66 C1680.73,420.43 1700.71,444.60 1710.48,457.00 C1720.02,469.49 1738.37,494.73 1747.18,507.48 C1755.59,520.50 1771.88,547.11 1779.77,560.70 C1787.48,574.47 1802.17,602.18 1809.13,616.10 C1815.84,630.06 1828.16,658.56 1834.03,673.06 C1839.69,687.71 1850.36,717.34 1855.32,732.17 C1860.01,747.00 1868.42,776.81 1872.17,791.91 C1875.69,807.14 1882.07,837.97 1884.89,853.42 C1887.47,868.84 1891.84,899.57 1893.42,914.98 C1894.75,930.47 1896.70,961.75 1897.32,977.51 C1897.69,993.21 1897.69,1024.39 1897.33,1039.87 C1896.47,1055.33 1894.00,1086.41 1892.39,1102.03 C1890.53,1117.68 1886.12,1148.70 1883.56,1164.04 C1880.77,1179.27 1873.98,1209.55 1870.20,1224.71 C1866.16,1239.89 1857.37,1270.10 1852.65,1285.00 C1847.73,1299.75 1836.99,1328.78 1831.14,1343.19 C1825.03,1357.57 1812.05,1386.24 1805.24,1400.39 C1798.25,1414.36 1783.71,1441.78 1775.92,1455.16 C1767.88,1468.47 1751.06,1494.90 1742.28,1508.00 C1733.34,1520.91 1715.00,1546.12 1705.59,1558.42 C1695.80,1570.41 1675.51,1594.09 1665.02,1605.77 C1654.30,1617.34 1632.47,1639.82 1621.37,1650.72 C1610.15,1661.40 1586.84,1681.89 1574.86,1691.92 C1562.66,1701.82 1537.76,1721.08 1525.17,1730.36 C1512.50,1739.39 1486.73,1756.56 1473.51,1764.77 C1460.10,1772.81 1432.72,1788.37 1418.88,1795.81 C1405.00,1803.00 1377.10,1816.63 1362.92,1822.87 C1348.57,1828.91 1319.40,1840.40 1304.59,1845.84 C1289.75,1851.03 1260.06,1860.64 1245.21,1865.06 C1230.23,1869.01 1199.87,1876.24 1184.50,1879.52 C1169.01,1882.58 1138.11,1887.94 1122.71,1890.24 C1107.35,1892.28 1076.41,1895.16 1060.81,1896.24 C1045.10,1897.08 1013.61,1898.03 997.96,1898.14 C982.39,1898.00 951.42,1896.75 935.89,1895.63 C920.30,1894.25 888.98,1890.76 873.40,1888.65 C857.92,1886.31 827.31,1880.95 812.16,1877.67 C796.99,1874.13 766.61,1866.29 751.42,1861.99 C736.36,1857.48 706.67,1847.82 692.04,1842.67 Z" fill="none" stroke="rgb(72, 244, 253)" stroke-width="200.00" stroke-opacity="1.00" stroke-linejoin="round"/>
</g>
</svg>
